<svg width="163" height="32" viewBox="0 0 163 32" fill="none" xmlns="http://www.w3.org/2000/svg">
<g clip-path="url(#clip0)">
<path d="M79.2806 0.189941V17.4363C79.2806 20.3233 78.6565 22.4449 77.4084 23.8019C76.1604 25.1579 74.3569 25.8327 71.9841 25.8327C67.1216 25.8327 64.6951 23.0364 64.6951 17.4363V0.189941H57.121V3.43335C57.953 4.28956 58.7004 5.22908 59.3404 6.2519C61.0205 8.94919 61.8752 12.1093 61.8752 15.6406C61.8752 19.1719 61.0196 22.332 59.3404 25.0293C59.2096 25.2338 59.0788 25.431 58.947 25.6281C59.5098 26.6204 60.1951 27.5072 61.0196 28.2875C63.624 30.7654 67.2609 32.0002 71.938 32.0002C76.615 32.0002 80.2519 30.7654 82.8488 28.2875C85.4532 25.817 86.7549 22.2857 86.7549 17.701V0.189941H79.2806Z" fill="#0392D6"/>
<path d="M97.0342 24.1498C96.1871 23.3621 95.1385 22.9678 93.898 22.9678C92.6574 22.9678 91.6098 23.3621 90.7618 24.1498C89.9147 24.9375 89.4902 25.9761 89.4902 27.2562C89.4902 28.5068 89.9137 29.5444 90.7618 30.3784C91.6098 31.2115 92.6574 31.6363 93.898 31.6363C95.1385 31.6363 96.1861 31.2124 97.0342 30.3784C97.8813 29.5444 98.3058 28.5068 98.3058 27.2562C98.3058 25.9761 97.8823 24.9384 97.0342 24.1498Z" fill="#FFCB05"/>
<path d="M120.019 13.9428L133.196 0H125.02L110.934 14.6102V0H103.622V31.2734H110.934V23.3703L115.203 18.9903L125.382 31.2734H133.966L120.019 13.9428Z" fill="#FFCB05"/>
<path d="M144.916 25.3771L162.315 4.69017V0H135.562V5.89535H152.645L135.192 26.5823V31.2725H163.001V25.3771H144.916Z" fill="#FFCB05"/>
<path d="M59.6011 15.6404C59.6011 18.421 59.0232 20.8989 57.8523 23.0741C57.7055 23.3472 57.5596 23.6045 57.3977 23.8619C55.9341 26.2111 53.869 28.0374 51.2175 29.3333C48.5745 30.6291 45.523 31.2734 42.063 31.2734H0V0H24.7725V5.81204H7.31248V12.6015H22.8232V18.2322H7.31248V25.4687H40.7312C41.4013 25.4687 42.1336 25.4086 42.8734 25.2947C42.881 25.2947 42.881 25.2947 42.8885 25.2947C45.524 25.0976 47.6662 24.2414 49.3153 22.7187C51.2109 20.9757 52.1512 18.6191 52.1512 15.6413C52.1512 12.6636 51.2109 10.2995 49.3153 8.55654C47.4196 6.81357 44.8849 5.94255 41.7025 5.94255H34.983V22.7576H27.6244V0H42.064C45.524 0 48.5755 0.651645 51.2185 1.94753C53.7146 3.16751 55.6875 4.84938 57.121 7.00981C57.2207 7.14587 57.3139 7.28287 57.3986 7.41894C58.8688 9.76726 59.6011 12.5108 59.6011 15.6404Z" fill="#0392D6"/>
</g>
<defs>
<clipPath id="clip0">
<rect width="163" height="32" fill="white"/>
</clipPath>
</defs>
</svg>
